<svg data-v-423bf9ae="" xmlns="http://www.w3.org/2000/svg" viewBox="0 0 794 90" class="iconLeft"><!----><!----><!----><g data-v-423bf9ae="" id="151012d2-18a0-4c8e-8226-79e929ad0098" fill="#3A1C18" transform="matrix(4.454342842102051,0,0,4.454342842102051,111.06999969482422,15.80178165435791)"><path d="M4.26 8.67L4.26 8.67L4.26 8.67Q4.31 8.67 4.48 8.68L4.48 8.68L4.48 8.68Q4.65 8.69 4.79 8.67L4.79 8.67L4.79 10.56L4.79 10.56Q4.59 10.60 4.40 10.62L4.40 10.62L4.40 10.62Q4.20 10.64 4.05 10.65L4.05 10.65L4.05 10.65Q3.86 10.67 3.68 10.65L3.68 10.65L3.68 10.65Q3.15 10.65 2.68 10.58L2.68 10.58L2.68 10.58Q2.21 10.50 1.85 10.23L1.85 10.23L1.85 10.23Q1.50 9.97 1.29 9.46L1.29 9.46L1.29 9.46Q1.08 8.96 1.08 8.09L1.08 8.09L1.08 1.55L3.60 1.55L3.60 8.04L3.60 8.04Q3.63 8.39 3.79 8.53L3.79 8.53L3.79 8.53Q3.95 8.67 4.26 8.67ZM10.26 3.04L10.26 3.04L10.26 3.04Q10.89 3.04 11.65 3.21L11.65 3.21L11.65 3.21Q12.40 3.39 13.05 3.83L13.05 3.83L13.05 3.83Q13.71 4.27 14.14 5.01L14.14 5.01L14.14 5.01Q14.57 5.75 14.57 6.89L14.57 6.89L14.57 6.89Q14.57 8.02 14.14 8.75L14.14 8.75L14.14 8.75Q13.71 9.48 13.05 9.90L13.05 9.90L13.05 9.90Q12.40 10.32 11.65 10.49L11.65 10.49L11.65 10.49Q10.89 10.65 10.26 10.65L10.26 10.65L10.26 10.65Q9.63 10.65 8.89 10.49L8.89 10.49L8.89 10.49Q8.15 10.32 7.51 9.90L7.51 9.90L7.51 9.90Q6.87 9.48 6.44 8.75L6.44 8.75L6.44 8.75Q6.01 8.02 6.01 6.89L6.01 6.89L6.01 6.89Q6.01 6.13 6.21 5.56L6.21 5.56L6.21 5.56Q6.41 4.98 6.74 4.56L6.74 4.56L6.74 4.56Q7.07 4.13 7.51 3.84L7.51 3.84L7.51 3.84Q7.95 3.54 8.42 3.37L8.42 3.37L8.42 3.37Q8.89 3.19 9.37 3.12L9.37 3.12L9.37 3.12Q9.84 3.04 10.26 3.04ZM10.26 8.90L10.26 8.90L10.26 8.90Q11.03 8.90 11.48 8.46L11.48 8.46L11.48 8.46Q11.93 8.01 11.93 6.89L11.93 6.89L11.93 6.89Q11.93 5.75 11.49 5.27L11.49 5.27L11.49 5.27Q11.05 4.79 10.26 4.79L10.26 4.79L10.26 4.79Q9.48 4.79 9.07 5.27L9.07 5.27L9.07 5.27Q8.65 5.75 8.65 6.89L8.65 6.89L8.65 6.89Q8.65 8.01 9.07 8.46L9.07 8.46L9.07 8.46Q9.48 8.90 10.26 8.90ZM20.43 3.04L20.43 3.04L20.43 3.04Q20.99 3.04 21.54 3.15L21.54 3.15L21.54 3.15Q22.09 3.26 22.53 3.61L22.53 3.61L22.53 3.61Q22.97 3.96 23.25 4.61L23.25 4.61L23.25 4.61Q23.53 5.26 23.53 6.33L23.53 6.33L23.53 10.50L21.20 10.50L21.20 7.17L21.20 7.17Q21.20 6.13 20.86 5.59L20.86 5.59L20.86 5.59Q20.52 5.05 19.89 5.05L19.89 5.05L19.89 5.05Q19.45 5.05 19.14 5.25L19.14 5.25L19.14 5.25Q18.83 5.45 18.64 5.80L18.64 5.80L18.64 5.80Q18.45 6.15 18.37 6.62L18.37 6.62L18.37 6.62Q18.28 7.08 18.28 7.64L18.28 7.64L18.28 10.50L15.76 10.50L15.76 3.22L17.65 3.22L18.07 4.56L18.07 4.56Q18.07 4.56 18.20 4.33L18.20 4.33L18.20 4.33Q18.33 4.09 18.61 3.80L18.61 3.80L18.61 3.80Q18.89 3.51 19.33 3.28L19.33 3.28L19.33 3.28Q19.78 3.04 20.43 3.04ZM30.69 3.25L32.80 3.25L32.80 9.86L32.80 9.86Q32.80 10.54 32.59 11.16L32.59 11.16L32.59 11.16Q32.38 11.79 31.86 12.26L31.86 12.26L31.86 12.26Q31.35 12.73 30.49 13.01L30.49 13.01L30.49 13.01Q29.62 13.29 28.31 13.29L28.31 13.29L28.31 13.29Q27.76 13.29 27.27 13.21L27.27 13.21L27.27 13.21Q26.78 13.13 26.42 13.03L26.42 13.03L26.42 13.03Q25.98 12.92 25.61 12.77L25.61 12.77L25.75 10.91L25.75 10.91Q26.12 11.06 26.54 11.17L26.54 11.17L26.54 11.17Q26.91 11.28 27.36 11.36L27.36 11.36L27.36 11.36Q27.82 11.44 28.31 11.44L28.31 11.44L28.31 11.44Q29.12 11.44 29.56 11.16L29.56 11.16L29.56 11.16Q30.00 10.89 30.21 10.52L30.21 10.52L30.21 10.52Q30.41 10.15 30.44 9.79L30.44 9.79L30.44 9.79Q30.46 9.42 30.46 9.25L30.46 9.25L30.46 9.25Q30.46 9.25 30.31 9.44L30.31 9.44L30.31 9.44Q30.16 9.63 29.87 9.87L29.87 9.87L29.87 9.87Q29.58 10.11 29.15 10.30L29.15 10.30L29.15 10.30Q28.71 10.50 28.15 10.50L28.15 10.50L28.15 10.50Q27.52 10.50 26.92 10.31L26.92 10.31L26.92 10.31Q26.31 10.12 25.82 9.68L25.82 9.68L25.82 9.68Q25.33 9.24 25.03 8.53L25.03 8.53L25.03 8.53Q24.72 7.81 24.72 6.78L24.72 6.78L24.72 6.78Q24.72 5.74 25.00 5.03L25.00 5.03L25.00 5.03Q25.27 4.31 25.74 3.87L25.74 3.87L25.74 3.87Q26.21 3.43 26.83 3.23L26.83 3.23L26.83 3.23Q27.45 3.04 28.15 3.04L28.15 3.04L28.15 3.04Q28.88 3.04 29.34 3.27L29.34 3.27L29.34 3.27Q29.81 3.50 30.07 3.78L30.07 3.78L30.07 3.78Q30.32 4.06 30.42 4.29L30.42 4.29L30.42 4.29Q30.52 4.52 30.52 4.52L30.52 4.52L30.69 3.25ZM30.37 6.76L30.37 6.76L30.37 6.76Q30.37 6.27 30.24 5.92L30.24 5.92L30.24 5.92Q30.11 5.57 29.90 5.35L29.90 5.35L29.90 5.35Q29.69 5.14 29.41 5.04L29.41 5.04L29.41 5.04Q29.13 4.94 28.84 4.94L28.84 4.94L28.84 4.94Q28.55 4.94 28.27 5.04L28.27 5.04L28.27 5.04Q28.00 5.14 27.79 5.36L27.79 5.36L27.79 5.36Q27.58 5.59 27.45 5.93L27.45 5.93L27.45 5.93Q27.33 6.27 27.33 6.76L27.33 6.76L27.33 6.76Q27.33 7.25 27.45 7.59L27.45 7.59L27.45 7.59Q27.58 7.94 27.79 8.15L27.79 8.15L27.79 8.15Q28.00 8.37 28.27 8.47L28.27 8.47L28.27 8.47Q28.55 8.57 28.84 8.57L28.84 8.57L28.84 8.57Q29.13 8.57 29.41 8.47L29.41 8.47L29.41 8.47Q29.69 8.37 29.90 8.15L29.90 8.15L29.90 8.15Q30.11 7.94 30.24 7.59L30.24 7.59L30.24 7.59Q30.37 7.25 30.37 6.76ZM41.68 3.04L41.68 3.04L41.68 3.04Q42.21 3.04 42.64 3.22L42.64 3.22L42.64 3.22Q43.08 3.40 43.39 3.63L43.39 3.63L43.39 3.63Q43.75 3.88 44.00 4.21L44.00 4.21L44.00 1.55L46.52 1.55L46.52 10.50L44.42 10.50L44.06 9.53L44.06 9.53Q43.81 9.84 43.46 10.09L43.46 10.09L43.46 10.09Q43.16 10.30 42.71 10.48L42.71 10.48L42.71 10.48Q42.27 10.65 41.68 10.65L41.68 10.65L41.68 10.65Q40.85 10.65 40.23 10.35L40.23 10.35L40.23 10.35Q39.61 10.05 39.19 9.55L39.19 9.55L39.19 9.55Q38.77 9.04 38.55 8.37L38.55 8.37L38.55 8.37Q38.33 7.69 38.33 6.93L38.33 6.93L38.33 6.93Q38.33 6.17 38.55 5.47L38.55 5.47L38.55 5.47Q38.77 4.77 39.19 4.23L39.19 4.23L39.19 4.23Q39.61 3.68 40.23 3.36L40.23 3.36L40.23 3.36Q40.85 3.04 41.68 3.04ZM42.48 8.75L42.48 8.75L42.48 8.75Q42.73 8.75 43.00 8.67L43.00 8.67L43.00 8.67Q43.27 8.60 43.50 8.39L43.50 8.39L43.50 8.39Q43.72 8.19 43.86 7.83L43.86 7.83L43.86 7.83Q44.00 7.46 44.00 6.89L44.00 6.89L44.00 6.89Q44.00 6.31 43.86 5.94L43.86 5.94L43.86 5.94Q43.72 5.57 43.50 5.35L43.50 5.35L43.50 5.35Q43.27 5.14 43.00 5.05L43.00 5.05L43.00 5.05Q42.73 4.97 42.48 4.97L42.48 4.97L42.48 4.97Q42.22 4.97 41.96 5.05L41.96 5.05L41.96 5.05Q41.69 5.14 41.48 5.35L41.48 5.35L41.48 5.35Q41.26 5.57 41.12 5.94L41.12 5.94L41.12 5.94Q40.98 6.31 40.98 6.89L40.98 6.89L40.98 6.89Q40.98 7.46 41.12 7.83L41.12 7.83L41.12 7.83Q41.26 8.19 41.48 8.39L41.48 8.39L41.48 8.39Q41.69 8.60 41.96 8.67L41.96 8.67L41.96 8.67Q42.22 8.75 42.48 8.75ZM50.79 10.50L48.27 10.50L48.27 3.22L50.79 3.22L50.79 10.50ZM50.78 1.04L50.78 1.04L50.78 1.04Q50.78 1.30 50.68 1.53L50.68 1.53L50.68 1.53Q50.58 1.76 50.41 1.93L50.41 1.93L50.41 1.93Q50.25 2.10 50.02 2.20L50.02 2.20L50.02 2.20Q49.80 2.30 49.55 2.30L49.55 2.30L49.55 2.30Q49.01 2.30 48.65 1.93L48.65 1.93L48.65 1.93Q48.29 1.57 48.29 1.04L48.29 1.04L48.29 1.04Q48.29 0.78 48.38 0.56L48.38 0.56L48.38 0.56Q48.48 0.34 48.65 0.17L48.65 0.17L48.65 0.17Q48.82 0.01 49.05-0.08L49.05-0.08L49.05-0.08Q49.28-0.18 49.55-0.18L49.55-0.18L49.55-0.18Q50.05-0.18 50.41 0.17L50.41 0.17L50.41 0.17Q50.78 0.53 50.78 1.04ZM55.57 3.02L55.57 3.02L55.57 3.02Q56.24 3.02 56.93 3.21L56.93 3.21L56.93 3.21Q57.62 3.39 58.30 3.81L58.30 3.81L57.44 5.21L57.44 5.21Q57.33 5.14 57.09 5.03L57.09 5.03L57.09 5.03Q56.85 4.93 56.57 4.84L56.57 4.84L56.57 4.84Q56.28 4.75 55.97 4.69L55.97 4.69L55.97 4.69Q55.65 4.63 55.40 4.66L55.40 4.66L55.40 4.66Q55.15 4.69 54.99 4.82L54.99 4.82L54.99 4.82Q54.82 4.94 54.82 5.22L54.82 5.22L54.82 5.22Q54.82 5.43 55.15 5.57L55.15 5.57L55.15 5.57Q55.48 5.71 55.90 5.85L55.90 5.85L55.90 5.85Q56.32 5.98 56.77 6.16L56.77 6.16L56.77 6.16Q57.22 6.34 57.59 6.62L57.59 6.62L57.59 6.62Q57.96 6.90 58.20 7.31L58.20 7.31L58.20 7.31Q58.44 7.73 58.44 8.33L58.44 8.33L58.44 8.33Q58.44 8.95 58.19 9.39L58.19 9.39L58.19 9.39Q57.95 9.83 57.54 10.11L57.54 10.11L57.54 10.11Q57.13 10.39 56.59 10.53L56.59 10.53L56.59 10.53Q56.04 10.67 55.45 10.67L55.45 10.67L55.45 10.67Q54.64 10.67 53.79 10.44L53.79 10.44L53.79 10.44Q52.93 10.22 52.26 9.65L52.26 9.65L53.13 8.16L53.13 8.16Q53.28 8.33 53.56 8.48L53.56 8.48L53.56 8.48Q53.83 8.64 54.15 8.75L54.15 8.75L54.15 8.75Q54.46 8.86 54.80 8.92L54.80 8.92L54.80 8.92Q55.13 8.97 55.40 8.95L55.40 8.95L55.40 8.95Q55.66 8.92 55.84 8.81L55.84 8.81L55.84 8.81Q56.01 8.69 56.01 8.46L56.01 8.46L56.01 8.46Q56.01 8.13 55.76 7.94L55.76 7.94L55.76 7.94Q55.51 7.74 55.13 7.59L55.13 7.59L55.13 7.59Q54.75 7.45 54.31 7.31L54.31 7.31L54.31 7.31Q53.86 7.17 53.48 6.93L53.48 6.93L53.48 6.93Q53.10 6.69 52.85 6.31L52.85 6.31L52.85 6.31Q52.60 5.94 52.60 5.33L52.60 5.33L52.60 5.33Q52.60 4.73 52.85 4.30L52.85 4.30L52.85 4.30Q53.10 3.86 53.52 3.58L53.52 3.58L53.52 3.58Q53.94 3.29 54.47 3.16L54.47 3.16L54.47 3.16Q55.01 3.02 55.57 3.02ZM63.62 8.97L63.62 8.97L63.62 8.97Q63.81 8.97 64.01 8.96L64.01 8.96L64.01 8.96Q64.20 8.95 64.36 8.92L64.36 8.92L64.36 8.92Q64.54 8.89 64.71 8.85L64.71 8.85L64.68 10.43L64.68 10.43Q64.44 10.49 64.18 10.54L64.18 10.54L64.18 10.54Q63.94 10.58 63.62 10.62L63.62 10.62L63.62 10.62Q63.31 10.65 62.94 10.65L62.94 10.65L62.94 10.65Q62.24 10.61 61.68 10.36L61.68 10.36L61.68 10.36Q61.45 10.25 61.22 10.08L61.22 10.08L61.22 10.08Q61.00 9.91 60.82 9.66L60.82 9.66L60.82 9.66Q60.65 9.41 60.54 9.08L60.54 9.08L60.54 9.08Q60.44 8.75 60.44 8.30L60.44 8.30L60.44 5.53L59.01 5.53L59.01 3.75L60.48 3.75L60.93 1.46L62.94 1.46L62.94 3.75L64.74 3.75L64.74 5.53L62.97 5.53L62.97 8.33L62.97 8.33Q63.00 8.68 63.16 8.83L63.16 8.83L63.16 8.83Q63.32 8.97 63.62 8.97ZM72.76 5.77L72.76 10.50L70.76 10.50L70.50 9.39L70.50 9.39Q70.06 10.05 69.51 10.35L69.51 10.35L69.51 10.35Q68.96 10.65 68.19 10.65L68.19 10.65L68.19 10.65Q67.65 10.65 67.15 10.52L67.15 10.52L67.15 10.52Q66.65 10.39 66.28 10.13L66.28 10.13L66.28 10.13Q65.90 9.87 65.67 9.48L65.67 9.48L65.67 9.48Q65.45 9.09 65.45 8.57L65.45 8.57L65.45 8.57Q65.44 7.87 65.65 7.39L65.65 7.39L65.65 7.39Q65.87 6.92 66.26 6.61L66.26 6.61L66.26 6.61Q66.64 6.30 67.14 6.13L67.14 6.13L67.14 6.13Q67.65 5.96 68.20 5.90L68.20 5.90L68.20 5.90Q68.75 5.84 69.32 5.84L69.32 5.84L69.32 5.84Q69.89 5.85 70.39 5.88L70.39 5.88L70.39 5.84L70.39 5.84Q70.39 5.29 70.11 5.03L70.11 5.03L70.11 5.03Q69.82 4.77 69.39 4.70L69.39 4.70L69.39 4.70Q68.96 4.63 68.45 4.71L68.45 4.71L68.45 4.71Q67.94 4.79 67.49 4.91L67.49 4.91L67.49 4.91Q67.05 5.04 66.72 5.17L66.72 5.17L66.72 5.17Q66.40 5.29 66.36 5.32L66.36 5.32L66.36 3.58L66.36 3.58Q66.37 3.57 66.63 3.49L66.63 3.49L66.63 3.49Q66.89 3.40 67.28 3.30L67.28 3.30L67.28 3.30Q67.68 3.21 68.15 3.12L68.15 3.12L68.15 3.12Q68.63 3.04 69.09 3.04L69.09 3.04L69.09 3.04Q69.55 3.04 70.18 3.15L70.18 3.15L70.18 3.15Q70.81 3.26 71.39 3.56L71.39 3.56L71.39 3.56Q71.96 3.86 72.36 4.40L72.36 4.40L72.36 4.40Q72.76 4.93 72.76 5.77L72.76 5.77ZM70.38 7.52L70.38 7.25L70.38 7.25Q69.92 7.25 69.46 7.26L69.46 7.26L69.46 7.26Q69.01 7.27 68.64 7.34L68.64 7.34L68.64 7.34Q68.26 7.42 68.04 7.61L68.04 7.61L68.04 7.61Q67.82 7.80 67.82 8.16L67.82 8.16L67.82 8.16Q67.82 8.55 68.05 8.77L68.05 8.77L68.05 8.77Q68.29 8.99 68.59 8.99L68.59 8.99L68.59 8.99Q68.98 8.99 69.31 8.88L69.31 8.88L69.31 8.88Q69.64 8.76 69.87 8.56L69.87 8.56L69.87 8.56Q70.11 8.36 70.25 8.09L70.25 8.09L70.25 8.09Q70.38 7.83 70.38 7.52L70.38 7.52ZM78.89 3.04L78.89 3.04L78.89 3.04Q79.45 3.04 80.00 3.15L80.00 3.15L80.00 3.15Q80.56 3.26 81.00 3.61L81.00 3.61L81.00 3.61Q81.44 3.96 81.72 4.61L81.72 4.61L81.72 4.61Q82.00 5.26 82.00 6.33L82.00 6.33L82.00 10.50L79.66 10.50L79.66 7.17L79.66 7.17Q79.66 6.13 79.32 5.59L79.32 5.59L79.32 5.59Q78.99 5.05 78.36 5.05L78.36 5.05L78.36 5.05Q77.91 5.05 77.60 5.25L77.60 5.25L77.60 5.25Q77.29 5.45 77.11 5.80L77.11 5.80L77.11 5.80Q76.92 6.15 76.83 6.62L76.83 6.62L76.83 6.62Q76.75 7.08 76.75 7.64L76.75 7.64L76.75 10.50L74.23 10.50L74.23 3.22L76.12 3.22L76.54 4.56L76.54 4.56Q76.54 4.56 76.66 4.33L76.66 4.33L76.66 4.33Q76.79 4.09 77.07 3.80L77.07 3.80L77.07 3.80Q77.35 3.51 77.80 3.28L77.80 3.28L77.80 3.28Q78.25 3.04 78.89 3.04ZM86.95 3.05L86.95 3.05L86.95 3.05Q87.39 3.05 87.82 3.10L87.82 3.10L87.82 3.10Q88.26 3.15 88.62 3.21L88.62 3.21L88.62 3.21Q89.04 3.28 89.43 3.36L89.43 3.36L89.43 5.31L89.43 5.31Q89.12 5.26 88.73 5.19L88.73 5.19L88.73 5.19Q88.34 5.12 87.94 5.10L87.94 5.10L87.94 5.10Q87.54 5.07 87.16 5.11L87.16 5.11L87.16 5.11Q86.79 5.15 86.49 5.35L86.49 5.35L86.49 5.35Q86.20 5.54 86.02 5.91L86.02 5.91L86.02 5.91Q85.83 6.27 85.83 6.89L85.83 6.89L85.83 6.89Q85.83 7.53 86.01 7.92L86.01 7.92L86.01 7.92Q86.18 8.32 86.47 8.52L86.47 8.52L86.47 8.52Q86.76 8.72 87.14 8.77L87.14 8.77L87.14 8.77Q87.51 8.82 87.91 8.79L87.91 8.79L87.91 8.79Q88.31 8.75 88.70 8.66L88.70 8.66L88.70 8.66Q89.10 8.57 89.43 8.50L89.43 8.50L89.43 10.30L89.43 10.30Q89.04 10.42 88.62 10.49L88.62 10.49L88.62 10.49Q88.26 10.56 87.81 10.61L87.81 10.61L87.81 10.61Q87.37 10.65 86.94 10.65L86.94 10.65L86.94 10.65Q86.39 10.65 85.74 10.49L85.74 10.49L85.74 10.49Q85.08 10.32 84.51 9.90L84.51 9.90L84.51 9.90Q83.94 9.48 83.57 8.75L83.57 8.75L83.57 8.75Q83.19 8.02 83.19 6.89L83.19 6.89L83.19 6.89Q83.19 5.75 83.57 5.02L83.57 5.02L83.57 5.02Q83.94 4.28 84.51 3.84L84.51 3.84L84.51 3.84Q85.08 3.40 85.74 3.23L85.74 3.23L85.74 3.23Q86.39 3.05 86.95 3.05ZM94.63 10.65L94.63 10.65L94.63 10.65Q93.30 10.65 92.43 10.31L92.43 10.31L92.43 10.31Q91.56 9.97 91.05 9.43L91.05 9.43L91.05 9.43Q90.54 8.89 90.34 8.21L90.34 8.21L90.34 8.21Q90.13 7.53 90.13 6.86L90.13 6.86L90.13 6.86Q90.13 6.19 90.34 5.51L90.34 5.51L90.34 5.51Q90.54 4.83 90.99 4.28L90.99 4.28L90.99 4.28Q91.45 3.72 92.18 3.38L92.18 3.38L92.18 3.38Q92.92 3.04 93.97 3.04L93.97 3.04L93.97 3.04Q95.05 3.04 95.77 3.38L95.77 3.38L95.77 3.38Q96.50 3.72 96.94 4.28L96.94 4.28L96.94 4.28Q97.37 4.83 97.55 5.51L97.55 5.51L97.55 5.51Q97.73 6.19 97.73 6.86L97.73 6.86L97.73 7.56L92.69 7.56L92.69 7.56Q92.71 7.73 92.83 7.97L92.83 7.97L92.83 7.97Q92.95 8.22 93.20 8.44L93.20 8.44L93.20 8.44Q93.45 8.65 93.85 8.81L93.85 8.81L93.85 8.81Q94.25 8.96 94.82 8.96L94.82 8.96L94.82 8.96Q95.35 8.96 95.80 8.87L95.80 8.87L95.80 8.87Q96.24 8.78 96.54 8.67L96.54 8.67L96.54 8.67Q96.91 8.53 97.17 8.36L97.17 8.36L97.17 10.07L97.17 10.07Q97.17 10.08 96.96 10.17L96.96 10.17L96.96 10.17Q96.74 10.26 96.38 10.37L96.38 10.37L96.38 10.37Q96.03 10.47 95.56 10.56L95.56 10.56L95.56 10.56Q95.10 10.65 94.63 10.65ZM92.69 6.13L95.47 6.13L95.47 6.13Q95.47 5.89 95.40 5.63L95.40 5.63L95.40 5.63Q95.33 5.36 95.16 5.14L95.16 5.14L95.16 5.14Q94.99 4.91 94.72 4.77L94.72 4.77L94.72 4.77Q94.46 4.62 94.07 4.62L94.07 4.62L94.07 4.62Q93.67 4.62 93.41 4.77L93.41 4.77L93.41 4.77Q93.14 4.91 92.99 5.14L92.99 5.14L92.99 5.14Q92.83 5.36 92.76 5.63L92.76 5.63L92.76 5.63Q92.69 5.89 92.69 6.13L92.69 6.13ZM108.42 3.19L108.42 3.19L108.42 3.19Q108.21 3.14 107.93 3.13L107.93 3.13L107.93 3.13Q107.65 3.12 107.39 3.21L107.39 3.21L107.39 3.21Q107.14 3.29 106.97 3.49L106.97 3.49L106.97 3.49Q106.79 3.70 106.79 4.05L106.79 4.05L108.56 4.05L108.35 5.81L106.78 5.81L106.78 10.50L104.27 10.50L104.27 5.81L102.75 5.81L102.76 4.05L104.31 4.05L104.33 3.51L104.33 3.51Q104.36 2.91 104.62 2.50L104.62 2.50L104.62 2.50Q104.89 2.09 105.29 1.83L105.29 1.83L105.29 1.83Q105.70 1.57 106.19 1.46L106.19 1.46L106.19 1.46Q106.68 1.34 107.14 1.34L107.14 1.34L107.14 1.34Q107.45 1.34 107.72 1.36L107.72 1.36L107.72 1.36Q107.98 1.37 108.18 1.40L108.18 1.40L108.18 1.40Q108.42 1.43 108.61 1.46L108.61 1.46L108.42 3.19ZM114.79 3.04L114.66 5.22L114.66 5.22Q113.85 5.04 113.34 5.24L113.34 5.24L113.34 5.24Q112.84 5.43 112.55 5.81L112.55 5.81L112.55 5.81Q112.27 6.19 112.16 6.64L112.16 6.64L112.16 6.64Q112.06 7.10 112.06 7.41L112.06 7.41L112.06 10.50L109.56 10.50L109.56 3.22L111.48 3.22L111.86 4.55L111.86 4.55Q111.86 4.55 111.99 4.31L111.99 4.31L111.99 4.31Q112.11 4.07 112.45 3.79L112.45 3.79L112.45 3.79Q112.78 3.51 113.35 3.28L113.35 3.28L113.35 3.28Q113.92 3.04 114.79 3.04L114.79 3.04ZM118.43 10.50L115.91 10.50L115.91 3.22L118.43 3.22L118.43 10.50ZM118.41 1.04L118.41 1.04L118.41 1.04Q118.41 1.30 118.31 1.53L118.31 1.53L118.31 1.53Q118.22 1.76 118.05 1.93L118.05 1.93L118.05 1.93Q117.88 2.10 117.66 2.20L117.66 2.20L117.66 2.20Q117.43 2.30 117.18 2.30L117.18 2.30L117.18 2.30Q116.65 2.30 116.28 1.93L116.28 1.93L116.28 1.93Q115.92 1.57 115.92 1.04L115.92 1.04L115.92 1.04Q115.92 0.78 116.02 0.56L116.02 0.56L116.02 0.56Q116.12 0.34 116.28 0.17L116.28 0.17L116.28 0.17Q116.45 0.01 116.68-0.08L116.68-0.08L116.68-0.08Q116.91-0.18 117.18-0.18L117.18-0.18L117.18-0.18Q117.68-0.18 118.05 0.17L118.05 0.17L118.05 0.17Q118.41 0.53 118.41 1.04ZM124.39 10.65L124.39 10.65L124.39 10.65Q123.06 10.65 122.19 10.31L122.19 10.31L122.19 10.31Q121.32 9.97 120.81 9.43L120.81 9.43L120.81 9.43Q120.30 8.89 120.10 8.21L120.10 8.21L120.10 8.21Q119.90 7.53 119.90 6.86L119.90 6.86L119.90 6.86Q119.90 6.19 120.10 5.51L120.10 5.51L120.10 5.51Q120.30 4.83 120.76 4.28L120.76 4.28L120.76 4.28Q121.21 3.72 121.95 3.38L121.95 3.38L121.95 3.38Q122.68 3.04 123.73 3.04L123.73 3.04L123.73 3.04Q124.81 3.04 125.54 3.38L125.54 3.38L125.54 3.38Q126.27 3.72 126.70 4.28L126.70 4.28L126.70 4.28Q127.13 4.83 127.32 5.51L127.32 5.51L127.32 5.51Q127.50 6.19 127.50 6.86L127.50 6.86L127.50 7.56L122.46 7.56L122.46 7.56Q122.47 7.73 122.59 7.97L122.59 7.97L122.59 7.97Q122.71 8.22 122.96 8.44L122.96 8.44L122.96 8.44Q123.21 8.65 123.61 8.81L123.61 8.81L123.61 8.81Q124.01 8.96 124.59 8.96L124.59 8.96L124.59 8.96Q125.12 8.96 125.56 8.87L125.56 8.87L125.56 8.87Q126.00 8.78 126.31 8.67L126.31 8.67L126.31 8.67Q126.67 8.53 126.94 8.36L126.94 8.36L126.94 10.07L126.94 10.07Q126.94 10.08 126.72 10.17L126.72 10.17L126.72 10.17Q126.50 10.26 126.15 10.37L126.15 10.37L126.15 10.37Q125.79 10.47 125.33 10.56L125.33 10.56L125.33 10.56Q124.87 10.65 124.39 10.65ZM122.46 6.13L125.23 6.13L125.23 6.13Q125.23 5.89 125.16 5.63L125.16 5.63L125.16 5.63Q125.09 5.36 124.92 5.14L124.92 5.14L124.92 5.14Q124.75 4.91 124.49 4.77L124.49 4.77L124.49 4.77Q124.22 4.62 123.83 4.62L123.83 4.62L123.83 4.62Q123.44 4.62 123.17 4.77L123.17 4.77L123.17 4.77Q122.91 4.91 122.75 5.14L122.75 5.14L122.75 5.14Q122.60 5.36 122.53 5.63L122.53 5.63L122.53 5.63Q122.46 5.89 122.46 6.13L122.46 6.13ZM133.49 3.04L133.49 3.04L133.49 3.04Q134.05 3.04 134.60 3.15L134.60 3.15L134.60 3.15Q135.16 3.26 135.60 3.61L135.60 3.61L135.60 3.61Q136.04 3.96 136.32 4.61L136.32 4.61L136.32 4.61Q136.60 5.26 136.60 6.33L136.60 6.33L136.60 10.50L134.26 10.50L134.26 7.17L134.26 7.17Q134.26 6.13 133.92 5.59L133.92 5.59L133.92 5.59Q133.59 5.05 132.96 5.05L132.96 5.05L132.96 5.05Q132.51 5.05 132.20 5.25L132.20 5.25L132.20 5.25Q131.89 5.45 131.71 5.80L131.71 5.80L131.71 5.80Q131.52 6.15 131.43 6.62L131.43 6.62L131.43 6.62Q131.35 7.08 131.35 7.64L131.35 7.64L131.35 10.50L128.83 10.50L128.83 3.22L130.72 3.22L131.14 4.56L131.14 4.56Q131.14 4.56 131.26 4.33L131.26 4.33L131.26 4.33Q131.39 4.09 131.67 3.80L131.67 3.80L131.67 3.80Q131.95 3.51 132.40 3.28L132.40 3.28L132.40 3.28Q132.85 3.04 133.49 3.04ZM141.13 3.04L141.13 3.04L141.13 3.04Q141.67 3.04 142.10 3.22L142.10 3.22L142.10 3.22Q142.53 3.40 142.84 3.63L142.84 3.63L142.84 3.63Q143.21 3.88 143.46 4.21L143.46 4.21L143.46 1.55L145.98 1.55L145.98 10.50L143.88 10.50L143.51 9.53L143.51 9.53Q143.26 9.84 142.91 10.09L142.91 10.09L142.91 10.09Q142.62 10.30 142.17 10.48L142.17 10.48L142.17 10.48Q141.72 10.65 141.13 10.65L141.13 10.65L141.13 10.65Q140.31 10.65 139.69 10.35L139.69 10.35L139.69 10.35Q139.06 10.05 138.64 9.55L138.64 9.55L138.64 9.55Q138.22 9.04 138.01 8.37L138.01 8.37L138.01 8.37Q137.79 7.69 137.79 6.93L137.79 6.93L137.79 6.93Q137.79 6.17 138.01 5.47L138.01 5.47L138.01 5.47Q138.22 4.77 138.64 4.23L138.64 4.23L138.64 4.23Q139.06 3.68 139.69 3.36L139.69 3.36L139.69 3.36Q140.31 3.04 141.13 3.04ZM141.93 8.75L141.93 8.75L141.93 8.75Q142.18 8.75 142.46 8.67L142.46 8.67L142.46 8.67Q142.73 8.60 142.95 8.39L142.95 8.39L142.95 8.39Q143.18 8.19 143.32 7.83L143.32 7.83L143.32 7.83Q143.46 7.46 143.46 6.89L143.46 6.89L143.46 6.89Q143.46 6.31 143.32 5.94L143.32 5.94L143.32 5.94Q143.18 5.57 142.95 5.35L142.95 5.35L142.95 5.35Q142.73 5.14 142.46 5.05L142.46 5.05L142.46 5.05Q142.18 4.97 141.93 4.97L141.93 4.97L141.93 4.97Q141.68 4.97 141.41 5.05L141.41 5.05L141.41 5.05Q141.15 5.14 140.93 5.35L140.93 5.35L140.93 5.35Q140.71 5.57 140.57 5.94L140.57 5.94L140.57 5.94Q140.43 6.31 140.43 6.89L140.43 6.89L140.43 6.89Q140.43 7.46 140.57 7.83L140.57 7.83L140.57 7.83Q140.71 8.19 140.93 8.39L140.93 8.39L140.93 8.39Q141.15 8.60 141.41 8.67L141.41 8.67L141.41 8.67Q141.68 8.75 141.93 8.75ZM150.40 3.02L150.40 3.02L150.40 3.02Q151.07 3.02 151.77 3.21L151.77 3.21L151.77 3.21Q152.46 3.39 153.13 3.81L153.13 3.81L152.28 5.21L152.28 5.21Q152.17 5.14 151.93 5.03L151.93 5.03L151.93 5.03Q151.69 4.93 151.40 4.84L151.40 4.84L151.40 4.84Q151.12 4.75 150.80 4.69L150.80 4.69L150.80 4.69Q150.49 4.63 150.23 4.66L150.23 4.66L150.23 4.66Q149.98 4.69 149.82 4.82L149.82 4.82L149.82 4.82Q149.66 4.94 149.66 5.22L149.66 5.22L149.66 5.22Q149.66 5.43 149.99 5.57L149.99 5.57L149.99 5.57Q150.32 5.71 150.74 5.85L150.74 5.85L150.74 5.85Q151.16 5.98 151.61 6.16L151.61 6.16L151.61 6.16Q152.05 6.34 152.43 6.62L152.43 6.62L152.43 6.62Q152.80 6.90 153.03 7.31L153.03 7.31L153.03 7.31Q153.27 7.73 153.27 8.33L153.27 8.33L153.27 8.33Q153.27 8.95 153.03 9.39L153.03 9.39L153.03 9.39Q152.78 9.83 152.38 10.11L152.38 10.11L152.38 10.11Q151.97 10.39 151.42 10.53L151.42 10.53L151.42 10.53Q150.88 10.67 150.29 10.67L150.29 10.67L150.29 10.67Q149.48 10.67 148.62 10.44L148.62 10.44L148.62 10.44Q147.77 10.22 147.10 9.65L147.10 9.65L147.97 8.16L147.97 8.16Q148.12 8.33 148.39 8.48L148.39 8.48L148.39 8.48Q148.67 8.64 148.98 8.75L148.98 8.75L148.98 8.75Q149.30 8.86 149.63 8.92L149.63 8.92L149.63 8.92Q149.97 8.97 150.23 8.95L150.23 8.95L150.23 8.95Q150.50 8.92 150.68 8.81L150.68 8.81L150.68 8.81Q150.85 8.69 150.85 8.46L150.85 8.46L150.85 8.46Q150.85 8.13 150.60 7.94L150.60 7.94L150.60 7.94Q150.35 7.74 149.97 7.59L149.97 7.59L149.97 7.59Q149.59 7.45 149.14 7.31L149.14 7.31L149.14 7.31Q148.69 7.17 148.32 6.93L148.32 6.93L148.32 6.93Q147.94 6.69 147.69 6.31L147.69 6.31L147.69 6.31Q147.43 5.94 147.43 5.33L147.43 5.33L147.43 5.33Q147.43 4.73 147.69 4.30L147.69 4.30L147.69 4.30Q147.94 3.86 148.36 3.58L148.36 3.58L148.36 3.58Q148.78 3.29 149.31 3.16L149.31 3.16L149.31 3.16Q149.84 3.02 150.40 3.02Z"></path></g><!----><g data-v-423bf9ae="" id="3d10a546-8f82-46e8-b188-1711d031aa32" transform="matrix(1.0660380125045776,0,0,1.0660380125045776,-4.262789249420166,-5.331644058227539)" stroke="none" fill="#FF5A20"><path d="M33.206 45.555c-9.26-9.26-9.26-24.328 0-33.588 9.26-9.26 24.327-9.26 33.589 0 9.26 9.26 9.26 24.328 0 33.588C62.164 50.186 56.082 52.5 50 52.5s-12.164-2.314-16.794-6.945zm30.052-30.052c-7.311-7.311-19.206-7.311-26.516 0s-7.311 19.206 0 26.517 19.206 7.311 26.516 0 7.31-19.207 0-26.517z"></path><path d="M40.277 38.484a2.5 2.5 0 1 1 3.536-3.536c3.412 3.412 8.962 3.412 12.375 0a2.5 2.5 0 1 1 3.535 3.536c-5.362 5.361-14.085 5.361-19.446 0z"></path><circle cx="44.697" cy="21.69" r="2.5"></circle><circle cx="55.304" cy="21.69" r="2.501"></circle><path d="M51.576 71.625C48.187 84.273 35.138 91.809 22.488 88.42 9.839 85.029 2.306 71.98 5.694 59.33c3.39-12.648 16.438-20.183 29.088-16.793 6.326 1.695 11.37 5.805 14.411 11.072 3.041 5.266 4.078 11.692 2.383 18.016zm-41.052-11c-2.676 9.986 3.271 20.287 13.258 22.963 9.987 2.678 20.289-3.271 22.963-13.258 2.676-9.986-3.271-20.287-13.257-22.963-9.986-2.676-20.288 3.272-22.964 13.258z"></path><path d="M41.917 69.037a2.5 2.5 0 1 1-4.83-1.295c1.248-4.66-1.527-9.467-6.188-10.717a2.5 2.5 0 1 1 1.294-4.829c7.325 1.964 11.685 9.517 9.724 16.841z"></path><circle cx="25.163" cy="73.606" r="2.5"></circle><circle cx="19.86" cy="64.421" r="2.5"></circle><path d="M64.924 42.753c12.649-3.389 25.698 4.145 29.088 16.794 3.389 12.648-4.145 25.697-16.795 29.088-12.649 3.389-25.698-4.145-29.088-16.793-1.694-6.326-.657-12.75 2.384-18.018 3.041-5.266 8.086-9.376 14.411-11.071zm11 41.053c9.986-2.676 15.934-12.979 13.258-22.965-2.676-9.985-12.978-15.933-22.964-13.257-9.987 2.675-15.934 12.976-13.258 22.962 2.676 9.988 12.978 15.935 22.964 13.26z"></path><path d="M67.512 52.413a2.501 2.501 0 0 1 1.294 4.831c-4.66 1.248-7.436 6.055-6.187 10.717a2.501 2.501 0 0 1-4.831 1.293c-1.961-7.325 2.4-14.878 9.724-16.841z"></path><circle cx="79.846" cy="64.637" r="2.5"></circle><circle cx="74.542" cy="73.823" r="2.501"></circle></g><!----></svg>